<svg xmlns="http://www.w3.org/2000/svg" xmlns:xlink="http://www.w3.org/1999/xlink" width="22.709" height="30.279" viewBox="0 0 22.709 30.279"><defs><style>.a{fill:url(#a);}.b{fill:#fff;}</style><linearGradient id="a" x1="0.5" x2="0.5" y2="1" gradientUnits="objectBoundingBox"><stop offset="0" stop-color="#457b9d"/><stop offset="1" stop-color="#1d3557"/></linearGradient></defs><g transform="translate(-75 -62)"><g transform="translate(6)"><path class="a" d="M19.87,11.354h-.946V7.57a7.57,7.57,0,0,0-15.139,0v3.785H2.839A2.842,2.842,0,0,0,0,14.193V27.44a2.842,2.842,0,0,0,2.839,2.839H19.87a2.842,2.842,0,0,0,2.839-2.839V14.193A2.842,2.842,0,0,0,19.87,11.354ZM6.308,7.57a5.046,5.046,0,0,1,10.093,0v3.785H6.308Zm0,0" transform="translate(69 62)"/><g transform="translate(76.682 77)"><g transform="translate(0)"><path class="b" d="M118.258,4.445a.216.216,0,0,0-.2-.125H115.5L118.029.332A.216.216,0,0,0,117.846,0H114.39a.216.216,0,0,0-.193.119L110.956,6.6a.216.216,0,0,0,.193.313h2.221l-2.421,5.749a.216.216,0,0,0,.364.223l6.913-8.209A.216.216,0,0,0,118.258,4.445Z" transform="translate(-110.933)"/></g></g></g></g></svg>