<?xml version="1.0" standalone="no"?>
<!DOCTYPE svg PUBLIC "-//W3C//DTD SVG 20010904//EN"
 "http://www.w3.org/TR/2001/REC-SVG-20010904/DTD/svg10.dtd">
<svg version="1.0" xmlns="http://www.w3.org/2000/svg"
 width="960.000000pt" height="960.000000pt" viewBox="0 0 960.000000 960.000000"
 preserveAspectRatio="xMidYMid meet">
<metadata>
Created by potrace 1.14, written by Peter Selinger 2001-2017
</metadata>
<g transform="translate(0.000000,960.000000) scale(0.100000,-0.100000)"
fill="#000000" stroke="none">
<path d="M4798 9575 c-2 -2 -55 -6 -118 -8 -163 -8 -207 -13 -355 -42 -16 -4
-39 -8 -50 -10 -27 -5 -54 -12 -92 -24 -18 -5 -33 -8 -33 -5 0 3 -9 0 -21 -6
-11 -6 -28 -13 -37 -15 -66 -13 -250 -88 -377 -153 -38 -20 -80 -41 -92 -46
-13 -6 -23 -14 -23 -18 0 -5 -6 -8 -12 -8 -12 0 -37 -16 -170 -105 -40 -26
-183 -141 -215 -171 -157 -150 -231 -228 -272 -288 -8 -12 -19 -24 -24 -27 -5
-3 -16 -17 -25 -31 -9 -14 -47 -70 -83 -124 -36 -55 -79 -124 -95 -154 -16
-30 -32 -56 -36 -58 -5 -2 -8 -12 -8 -22 0 -9 -7 -23 -15 -30 -8 -7 -15 -17
-15 -23 0 -6 -9 -29 -20 -51 -59 -123 -150 -411 -164 -518 -3 -18 -5 -33 -6
-33 -2 0 -7 -25 -15 -77 -11 -76 -15 -121 -20 -227 -2 -57 -6 -106 -9 -108 -3
-3 -1 -16 4 -29 6 -14 6 -26 0 -29 -6 -3 -6 -15 0 -30 5 -13 6 -26 2 -29 -8
-5 -8 -64 1 -72 3 -3 2 -16 -3 -29 -5 -13 -6 -26 -3 -29 8 -8 7 -102 -2 -116
-3 -5 -2 -10 4 -10 6 0 6 -11 1 -30 -5 -16 -5 -30 -1 -30 4 0 5 -20 1 -45 -4
-25 -5 -47 -2 -50 7 -6 8 -65 2 -65 -7 0 -4 -69 3 -76 3 -3 2 -16 -3 -29 -5
-13 -6 -26 -3 -29 8 -8 7 -102 -2 -116 -3 -5 -2 -10 4 -10 6 0 6 -11 1 -30 -5
-17 -5 -30 0 -30 5 0 5 -12 1 -28 -5 -15 -5 -37 0 -49 5 -13 4 -25 -1 -28 -6
-3 -6 -15 0 -29 5 -13 6 -27 3 -30 -9 -8 -9 -85 -1 -80 11 7 -4 -30 -15 -37
-5 -4 -20 -4 -33 0 -13 3 -62 4 -110 1 -47 -3 -88 -2 -90 2 -3 4 -10 5 -17 3
-7 -2 -51 -6 -98 -9 -156 -11 -334 -73 -455 -159 -76 -54 -214 -194 -214 -217
0 -6 -3 -10 -7 -10 -7 0 -44 -55 -48 -70 -1 -3 -14 -32 -30 -65 -37 -79 -42
-93 -54 -140 -6 -22 -14 -53 -18 -70 -11 -41 -15 -4496 -4 -4509 4 -6 8 -18 8
-26 0 -35 65 -226 82 -240 3 -3 17 -26 31 -53 13 -26 28 -47 32 -47 3 0 10 -9
13 -20 12 -39 231 -240 261 -240 3 0 20 -10 37 -22 18 -13 33 -22 34 -21 2 1
23 -6 48 -17 47 -20 121 -43 185 -57 47 -11 5651 -10 5715 0 67 11 190 53 244
83 24 13 48 24 53 24 5 0 16 6 23 12 8 7 30 24 51 38 56 38 172 158 218 225
22 33 41 62 41 65 1 3 14 32 30 65 44 94 66 160 69 212 1 12 5 25 9 29 11 12
8 4462 -3 4469 -6 4 -8 10 -5 14 6 10 -41 175 -61 213 -8 15 -13 29 -12 30 2
2 -6 17 -17 33 -12 17 -26 41 -33 55 -7 14 -26 40 -42 59 -16 18 -42 49 -57
68 -48 60 -168 150 -265 196 -131 64 -205 84 -343 93 -44 3 -82 7 -84 9 -1 2
-14 0 -27 -5 -13 -5 -24 -6 -24 -2 0 4 -26 6 -57 4 -136 -8 -160 -4 -166 25
-2 13 -1 23 2 23 3 0 5 19 4 42 -1 24 -2 43 -3 43 -1 0 -2 15 -3 33 -1 17 0
32 3 32 7 0 4 69 -3 76 -3 3 -2 17 3 30 5 13 6 25 2 28 -5 3 -5 30 -2 61 3 31
3 58 -2 61 -4 3 -3 15 2 28 5 13 6 27 3 30 -8 8 -8 85 0 92 3 4 2 17 -3 30 -6
14 -6 26 0 29 5 3 6 15 1 27 -4 12 -5 37 -1 55 5 18 4 33 0 33 -4 0 -5 15 -1
33 4 17 4 46 1 64 -4 17 -4 37 1 44 4 7 3 23 -1 35 -6 14 -5 26 0 29 5 3 6 15
1 28 -5 12 -5 34 0 49 4 15 4 30 -1 33 -5 3 -5 16 0 30 6 15 6 27 0 30 -6 3
-6 15 0 29 5 13 6 26 3 29 -3 3 -7 45 -9 94 -2 48 -5 102 -7 118 -3 17 -8 57
-12 90 -6 48 -37 204 -49 250 -2 6 -6 24 -11 40 -33 132 -113 335 -185 471
-45 87 -48 93 -102 177 -21 32 -38 60 -38 62 0 5 -112 155 -145 194 -84 102
-250 259 -407 386 -39 32 -198 135 -208 135 -5 0 -10 5 -10 10 0 6 -5 10 -11
10 -6 0 -36 15 -67 33 -82 47 -281 136 -342 152 -3 1 -12 4 -20 8 -18 6 -120
40 -135 43 -5 2 -19 5 -30 8 -11 2 -40 9 -65 15 -25 7 -58 14 -75 16 -16 3
-42 7 -57 10 -68 15 -142 23 -278 30 -58 3 -113 7 -122 9 -9 2 -18 2 -20 1z
m222 -789 c14 -3 45 -9 70 -12 25 -3 48 -8 53 -11 4 -2 20 -6 35 -9 166 -28
447 -166 626 -306 73 -58 273 -269 285 -302 2 -5 12 -19 23 -30 10 -11 24 -32
30 -48 7 -15 16 -28 19 -28 3 0 33 -55 67 -122 58 -116 115 -269 125 -336 3
-17 7 -35 10 -39 3 -5 8 -29 11 -53 3 -25 8 -58 11 -74 3 -16 8 -65 9 -108 2
-44 7 -82 10 -85 3 -3 1 -14 -4 -24 -7 -11 -7 -20 0 -24 5 -3 6 -15 0 -29 -4
-12 -4 -29 0 -36 5 -8 5 -19 0 -25 -5 -6 -5 -17 -1 -24 5 -7 5 -28 1 -47 -4
-19 -4 -34 0 -34 5 0 5 -13 0 -30 -5 -17 -5 -30 0 -30 5 0 5 -13 0 -30 -5 -17
-5 -30 0 -30 5 0 5 -13 0 -30 -5 -17 -5 -30 0 -30 5 0 5 -13 0 -30 -5 -17 -5
-30 0 -30 5 0 5 -13 0 -30 -5 -17 -5 -30 0 -30 5 0 5 -13 0 -30 -5 -17 -5 -30
0 -30 5 0 5 -13 0 -30 -5 -17 -5 -30 0 -30 5 0 5 -13 0 -30 -5 -17 -5 -30 0
-30 5 0 5 -13 0 -30 -5 -16 -6 -30 -2 -30 8 0 7 -68 -1 -76 -3 -3 -2 -17 3
-30 6 -14 6 -26 0 -29 -6 -3 -6 -15 0 -30 6 -15 6 -27 0 -30 -6 -3 -6 -15 0
-30 6 -15 6 -27 0 -30 -5 -3 -6 -15 0 -29 4 -12 4 -29 0 -36 -5 -8 -5 -21 0
-29 5 -9 4 -23 -2 -34 -6 -12 -6 -23 2 -32 17 -21 -6 -29 -79 -26 -36 2 -73 3
-81 3 -8 -1 -40 -1 -70 -1 -30 0 -63 -1 -72 -1 -10 0 -26 0 -35 0 -10 0 -40 0
-68 0 -27 0 -59 -1 -70 -3 -11 -2 -34 -1 -52 4 -18 4 -35 3 -38 -1 -3 -4 -21
-4 -40 0 -19 4 -35 4 -35 0 0 -4 -18 -4 -39 0 -22 4 -45 4 -52 0 -6 -4 -25 -4
-40 0 -16 5 -31 5 -34 0 -3 -4 -20 -4 -39 0 -19 4 -40 4 -46 0 -7 -4 -26 -4
-41 0 -16 5 -31 5 -34 0 -3 -4 -21 -4 -40 0 -19 4 -37 4 -40 0 -3 -4 -20 -4
-39 0 -19 4 -53 4 -76 0 -23 -4 -56 -4 -75 0 -18 4 -38 4 -45 0 -7 -4 -27 -4
-45 0 -19 4 -53 4 -77 0 -24 -5 -45 -8 -48 -7 -3 0 -20 4 -38 8 -17 4 -34 3
-37 -1 -3 -4 -21 -4 -40 0 -19 4 -35 4 -35 0 0 -4 -18 -4 -39 0 -22 4 -45 4
-52 0 -6 -4 -25 -4 -40 0 -16 5 -31 5 -34 0 -3 -4 -20 -4 -39 0 -19 4 -40 4
-46 0 -7 -4 -26 -4 -41 0 -16 5 -31 5 -34 0 -3 -4 -21 -4 -40 0 -19 4 -37 4
-40 0 -3 -4 -20 -4 -39 0 -19 4 -53 4 -76 0 -23 -4 -56 -4 -75 0 -18 4 -38 4
-45 0 -7 -4 -27 -4 -45 0 -19 4 -53 4 -77 0 -24 -5 -45 -8 -48 -7 -3 0 -20 4
-38 8 -17 4 -34 3 -37 -1 -3 -4 -20 -4 -39 0 -19 4 -53 4 -76 0 -23 -4 -56 -4
-75 0 -18 4 -38 4 -45 0 -7 -4 -27 -4 -45 0 -19 4 -52 4 -74 0 -23 -4 -41 -4
-41 0 0 4 -18 4 -41 0 -22 -4 -55 -4 -74 0 -18 4 -38 4 -45 0 -7 -4 -27 -4
-45 0 -19 4 -52 4 -74 0 -44 -8 -41 -13 -41 75 0 8 0 22 0 30 0 8 0 22 0 30 0
8 0 22 0 30 0 8 0 23 0 33 0 9 0 40 -1 69 0 29 2 57 6 63 3 5 3 10 -2 10 -4 0
-8 23 -8 50 0 28 3 50 7 50 4 0 3 14 -2 30 -5 18 -5 30 0 30 6 0 6 10 1 23 -5
13 -6 30 -1 37 5 7 4 24 -1 37 -5 13 -5 23 1 23 5 0 5 12 0 30 -5 17 -5 30 -1
30 5 0 5 18 1 40 -4 22 -4 40 1 40 4 0 4 14 -1 30 -5 18 -5 30 0 30 6 0 6 10
1 23 -5 13 -6 30 -1 37 5 7 4 24 -1 37 -5 13 -5 23 1 23 5 0 5 12 0 30 -5 17
-6 30 -2 30 4 0 7 20 7 45 0 25 -3 45 -7 45 -4 0 -3 14 2 30 5 17 6 30 2 30
-4 0 -6 17 -5 37 13 212 16 239 39 343 8 36 17 77 20 92 15 78 138 363 170
396 8 7 14 19 14 27 0 7 3 15 8 17 4 2 20 23 37 48 16 25 32 47 35 50 3 3 18
22 33 43 81 108 304 303 420 367 138 76 266 135 313 144 10 2 33 10 49 16 31
12 70 22 93 23 6 0 12 3 12 6 0 3 15 7 33 9 46 3 60 6 75 15 6 5 15 6 20 4 4
-2 30 -1 57 3 57 7 357 4 395 -4z"/>
</g>
</svg>
